<?xml version="1.0" encoding="UTF-8" standalone="no"?>
<!DOCTYPE svg PUBLIC "-//W3C//DTD SVG 1.1//EN"
 "http://www.w3.org/Graphics/SVG/1.1/DTD/svg11.dtd">
<!-- Generated by graphviz version 2.43.0 (0)
 -->
<!-- Title: createflow Pages: 1 -->
<svg width="621pt" height="692pt"
 viewBox="0.00 0.00 621.28 692.00" xmlns="http://www.w3.org/2000/svg" xmlns:xlink="http://www.w3.org/1999/xlink">
<g id="graph0" class="graph" transform="scale(1 1) rotate(0) translate(4 688)">
<title>createflow</title>
<polygon fill="white" stroke="transparent" points="-4,4 -4,-688 617.28,-688 617.28,4 -4,4"/>
<!-- NOT_STARTED -->
<g id="node1" class="node">
<title>NOT_STARTED</title>
<ellipse fill="none" stroke="black" cx="387.28" cy="-666" rx="72.59" ry="18"/>
<text text-anchor="middle" x="387.28" y="-662.3" font-family="Times,serif" font-size="14.00">NOT_STARTED</text>
</g>
<!-- WAITING_FOR_RENDERER_RESPONSE -->
<g id="node2" class="node">
<title>WAITING_FOR_RENDERER_RESPONSE</title>
<ellipse fill="none" stroke="black" cx="170.28" cy="-594" rx="170.07" ry="18"/>
<text text-anchor="middle" x="170.28" y="-590.3" font-family="Times,serif" font-size="14.00">WAITING_FOR_RENDERER_RESPONSE</text>
</g>
<!-- NOT_STARTED&#45;&gt;WAITING_FOR_RENDERER_RESPONSE -->
<g id="edge1" class="edge">
<title>NOT_STARTED&#45;&gt;WAITING_FOR_RENDERER_RESPONSE</title>
<path fill="none" stroke="black" d="M344.93,-651.34C312.21,-640.78 266.51,-626.04 230.06,-614.28"/>
<polygon fill="black" stroke="black" points="231.12,-610.95 220.53,-611.21 228.97,-617.61 231.12,-610.95"/>
</g>
<!-- WILL_START_NAVIGATION -->
<g id="node3" class="node">
<title>WILL_START_NAVIGATION</title>
<ellipse fill="none" stroke="black" cx="211.28" cy="-522" rx="125.38" ry="18"/>
<text text-anchor="middle" x="211.28" y="-518.3" font-family="Times,serif" font-size="14.00">WILL_START_NAVIGATION</text>
</g>
<!-- NOT_STARTED&#45;&gt;WILL_START_NAVIGATION -->
<g id="edge2" class="edge">
<title>NOT_STARTED&#45;&gt;WILL_START_NAVIGATION</title>
<path fill="none" stroke="black" d="M384.18,-647.98C379.74,-628.18 369.73,-595.7 349.28,-576 332.54,-559.87 310.37,-548.51 288.7,-540.58"/>
<polygon fill="black" stroke="black" points="289.73,-537.23 279.14,-537.28 287.45,-543.85 289.73,-537.23"/>
</g>
<!-- WILL_START_REQUEST -->
<g id="node4" class="node">
<title>WILL_START_REQUEST</title>
<ellipse fill="none" stroke="black" cx="309.28" cy="-450" rx="109.38" ry="18"/>
<text text-anchor="middle" x="309.28" y="-446.3" font-family="Times,serif" font-size="14.00">WILL_START_REQUEST</text>
</g>
<!-- NOT_STARTED&#45;&gt;WILL_START_REQUEST -->
<g id="edge3" class="edge">
<title>NOT_STARTED&#45;&gt;WILL_START_REQUEST</title>
<path fill="none" stroke="black" d="M386.29,-647.67C384.94,-629.54 381.89,-600.38 375.28,-576 366.23,-542.54 361.77,-534.49 345.28,-504 340.26,-494.7 334,-485.01 328.13,-476.49"/>
<polygon fill="black" stroke="black" points="330.83,-474.26 322.21,-468.11 325.12,-478.29 330.83,-474.26"/>
</g>
<!-- WAITING_FOR_RENDERER_RESPONSE&#45;&gt;WILL_START_NAVIGATION -->
<g id="edge4" class="edge">
<title>WAITING_FOR_RENDERER_RESPONSE&#45;&gt;WILL_START_NAVIGATION</title>
<path fill="none" stroke="black" d="M180.42,-575.7C185.14,-567.64 190.85,-557.89 196.07,-548.98"/>
<polygon fill="black" stroke="black" points="199.23,-550.5 201.27,-540.1 193.19,-546.96 199.23,-550.5"/>
</g>
<!-- WILL_START_NAVIGATION&#45;&gt;WILL_START_REQUEST -->
<g id="edge5" class="edge">
<title>WILL_START_NAVIGATION&#45;&gt;WILL_START_REQUEST</title>
<path fill="none" stroke="black" d="M235.01,-504.05C247.77,-494.94 263.68,-483.58 277.49,-473.71"/>
<polygon fill="black" stroke="black" points="279.68,-476.45 285.78,-467.79 275.61,-470.75 279.68,-476.45"/>
</g>
<!-- WILL_FAIL_REQUEST -->
<g id="node5" class="node">
<title>WILL_FAIL_REQUEST</title>
<ellipse fill="none" stroke="black" cx="248.28" cy="-234" rx="100.98" ry="18"/>
<text text-anchor="middle" x="248.28" y="-230.3" font-family="Times,serif" font-size="14.00">WILL_FAIL_REQUEST</text>
</g>
<!-- WILL_START_NAVIGATION&#45;&gt;WILL_FAIL_REQUEST -->
<g id="edge6" class="edge">
<title>WILL_START_NAVIGATION&#45;&gt;WILL_FAIL_REQUEST</title>
<path fill="none" stroke="black" d="M202.34,-503.79C190.63,-480.22 170.74,-436.23 163.28,-396 160.37,-380.27 162.18,-375.96 163.28,-360 165.51,-327.77 156.49,-315.6 173.28,-288 181.1,-275.16 193.32,-264.6 205.65,-256.37"/>
<polygon fill="black" stroke="black" points="207.54,-259.32 214.16,-251.04 203.82,-253.38 207.54,-259.32"/>
</g>
<!-- WILL_START_REQUEST&#45;&gt;WILL_FAIL_REQUEST -->
<g id="edge7" class="edge">
<title>WILL_START_REQUEST&#45;&gt;WILL_FAIL_REQUEST</title>
<path fill="none" stroke="black" d="M236.15,-436.63C213.11,-428.91 190.09,-416.37 176.28,-396 146.06,-351.42 191.36,-292.09 222.67,-259.33"/>
<polygon fill="black" stroke="black" points="225.38,-261.57 229.89,-251.98 220.38,-256.67 225.38,-261.57"/>
</g>
<!-- WILL_REDIRECT_REQUEST -->
<g id="node6" class="node">
<title>WILL_REDIRECT_REQUEST</title>
<ellipse fill="none" stroke="black" cx="309.28" cy="-378" rx="124.28" ry="18"/>
<text text-anchor="middle" x="309.28" y="-374.3" font-family="Times,serif" font-size="14.00">WILL_REDIRECT_REQUEST</text>
</g>
<!-- WILL_START_REQUEST&#45;&gt;WILL_REDIRECT_REQUEST -->
<g id="edge8" class="edge">
<title>WILL_START_REQUEST&#45;&gt;WILL_REDIRECT_REQUEST</title>
<path fill="none" stroke="black" d="M309.28,-431.7C309.28,-423.98 309.28,-414.71 309.28,-406.11"/>
<polygon fill="black" stroke="black" points="312.78,-406.1 309.28,-396.1 305.78,-406.1 312.78,-406.1"/>
</g>
<!-- WILL_PROCESS_RESPONSE -->
<g id="node7" class="node">
<title>WILL_PROCESS_RESPONSE</title>
<ellipse fill="none" stroke="black" cx="347.28" cy="-306" rx="124.28" ry="18"/>
<text text-anchor="middle" x="347.28" y="-302.3" font-family="Times,serif" font-size="14.00">WILL_PROCESS_RESPONSE</text>
</g>
<!-- WILL_START_REQUEST&#45;&gt;WILL_PROCESS_RESPONSE -->
<g id="edge9" class="edge">
<title>WILL_START_REQUEST&#45;&gt;WILL_PROCESS_RESPONSE</title>
<path fill="none" stroke="black" d="M393.64,-438.51C419.25,-430.92 444.7,-417.99 460.28,-396 469.54,-382.95 468.87,-373.5 460.28,-360 450.48,-344.57 434.86,-333.55 418.33,-325.72"/>
<polygon fill="black" stroke="black" points="419.65,-322.47 409.08,-321.68 416.85,-328.89 419.65,-322.47"/>
</g>
<!-- READY_TO_COMMIT -->
<g id="node8" class="node">
<title>READY_TO_COMMIT</title>
<ellipse fill="none" stroke="black" cx="364.28" cy="-90" rx="98.58" ry="18"/>
<text text-anchor="middle" x="364.28" y="-86.3" font-family="Times,serif" font-size="14.00">READY_TO_COMMIT</text>
</g>
<!-- WILL_START_REQUEST&#45;&gt;READY_TO_COMMIT -->
<g id="edge10" class="edge">
<title>WILL_START_REQUEST&#45;&gt;READY_TO_COMMIT</title>
<path fill="none" stroke="black" d="M241.08,-435.81C214.36,-427.89 184.99,-415.42 163.28,-396 130.4,-366.58 119.28,-351.13 119.28,-307 119.28,-307 119.28,-307 119.28,-233 119.28,-156.7 209.33,-120.72 280.24,-104.22"/>
<polygon fill="black" stroke="black" points="281.11,-107.61 290.11,-102.02 279.59,-100.78 281.11,-107.61"/>
</g>
<!-- DID_COMMIT -->
<g id="node9" class="node">
<title>DID_COMMIT</title>
<ellipse fill="none" stroke="black" cx="228.28" cy="-18" rx="67.69" ry="18"/>
<text text-anchor="middle" x="228.28" y="-14.3" font-family="Times,serif" font-size="14.00">DID_COMMIT</text>
</g>
<!-- WILL_START_REQUEST&#45;&gt;DID_COMMIT -->
<g id="edge11" class="edge">
<title>WILL_START_REQUEST&#45;&gt;DID_COMMIT</title>
<path fill="none" stroke="black" d="M223.72,-438.78C190.73,-431.31 154.48,-418.38 127.28,-396 92.9,-367.71 81.28,-351.53 81.28,-307 81.28,-307 81.28,-307 81.28,-161 81.28,-102.7 141.84,-60.74 185.22,-38.16"/>
<polygon fill="black" stroke="black" points="186.84,-41.27 194.19,-33.64 183.69,-35.02 186.84,-41.27"/>
</g>
<!-- CANCELING -->
<g id="node10" class="node">
<title>CANCELING</title>
<ellipse fill="none" stroke="black" cx="454.28" cy="-162" rx="61.99" ry="18"/>
<text text-anchor="middle" x="454.28" y="-158.3" font-family="Times,serif" font-size="14.00">CANCELING</text>
</g>
<!-- WILL_START_REQUEST&#45;&gt;CANCELING -->
<g id="edge12" class="edge">
<title>WILL_START_REQUEST&#45;&gt;CANCELING</title>
<path fill="none" stroke="black" d="M394.1,-438.55C423.72,-431.03 455.08,-418.13 477.28,-396 534.42,-339.07 528.5,-291.55 500.28,-216 496.24,-205.16 488.87,-195.08 481.19,-186.67"/>
<polygon fill="black" stroke="black" points="483.64,-184.16 474.15,-179.45 478.63,-189.05 483.64,-184.16"/>
</g>
<!-- DID_COMMIT_ERROR_PAGE -->
<g id="node11" class="node">
<title>DID_COMMIT_ERROR_PAGE</title>
<ellipse fill="none" stroke="black" cx="473.28" cy="-18" rx="128.88" ry="18"/>
<text text-anchor="middle" x="473.28" y="-14.3" font-family="Times,serif" font-size="14.00">DID_COMMIT_ERROR_PAGE</text>
</g>
<!-- WILL_START_REQUEST&#45;&gt;DID_COMMIT_ERROR_PAGE -->
<g id="edge13" class="edge">
<title>WILL_START_REQUEST&#45;&gt;DID_COMMIT_ERROR_PAGE</title>
<path fill="none" stroke="black" d="M404.52,-441.08C439.66,-433.9 477.61,-420.57 505.28,-396 531.08,-373.1 527.72,-357.87 534.28,-324 542.13,-283.55 543.71,-223.29 525.28,-144 517.02,-108.43 499.63,-69.99 487.24,-45.27"/>
<polygon fill="black" stroke="black" points="490.27,-43.5 482.6,-36.19 484.03,-46.68 490.27,-43.5"/>
</g>
<!-- WILL_FAIL_REQUEST&#45;&gt;WILL_FAIL_REQUEST -->
<g id="edge26" class="edge">
<title>WILL_FAIL_REQUEST&#45;&gt;WILL_FAIL_REQUEST</title>
<path fill="none" stroke="black" d="M315.72,-247.39C343.52,-248.27 367.03,-243.81 367.03,-234 367.03,-225.42 349.03,-220.93 325.91,-220.53"/>
<polygon fill="black" stroke="black" points="325.69,-217.03 315.72,-220.61 325.75,-224.03 325.69,-217.03"/>
</g>
<!-- WILL_FAIL_REQUEST&#45;&gt;READY_TO_COMMIT -->
<g id="edge27" class="edge">
<title>WILL_FAIL_REQUEST&#45;&gt;READY_TO_COMMIT</title>
<path fill="none" stroke="black" d="M262.05,-216.15C282.37,-191.28 320.52,-144.57 344.04,-115.79"/>
<polygon fill="black" stroke="black" points="346.92,-117.78 350.54,-107.82 341.5,-113.36 346.92,-117.78"/>
</g>
<!-- WILL_FAIL_REQUEST&#45;&gt;CANCELING -->
<g id="edge28" class="edge">
<title>WILL_FAIL_REQUEST&#45;&gt;CANCELING</title>
<path fill="none" stroke="black" d="M288.28,-217.46C321.04,-205.87 367.47,-190.09 402.95,-178.5"/>
<polygon fill="black" stroke="black" points="404.22,-181.77 412.65,-175.35 402.06,-175.11 404.22,-181.77"/>
</g>
<!-- WILL_REDIRECT_REQUEST&#45;&gt;WILL_FAIL_REQUEST -->
<g id="edge14" class="edge">
<title>WILL_REDIRECT_REQUEST&#45;&gt;WILL_FAIL_REQUEST</title>
<path fill="none" stroke="black" d="M259.6,-361.28C242.11,-353.09 224.33,-341.1 214.28,-324 202.41,-303.78 214.12,-278.65 226.93,-260.26"/>
<polygon fill="black" stroke="black" points="230.05,-261.93 233.21,-251.82 224.43,-257.75 230.05,-261.93"/>
</g>
<!-- WILL_REDIRECT_REQUEST&#45;&gt;WILL_REDIRECT_REQUEST -->
<g id="edge15" class="edge">
<title>WILL_REDIRECT_REQUEST&#45;&gt;WILL_REDIRECT_REQUEST</title>
<path fill="none" stroke="black" d="M392.15,-391.44C424.48,-392.08 451.42,-387.6 451.42,-378 451.42,-369.41 429.87,-364.92 402.17,-364.53"/>
<polygon fill="black" stroke="black" points="402.14,-361.03 392.15,-364.56 402.16,-368.03 402.14,-361.03"/>
</g>
<!-- WILL_REDIRECT_REQUEST&#45;&gt;WILL_PROCESS_RESPONSE -->
<g id="edge16" class="edge">
<title>WILL_REDIRECT_REQUEST&#45;&gt;WILL_PROCESS_RESPONSE</title>
<path fill="none" stroke="black" d="M318.68,-359.7C323.05,-351.64 328.34,-341.89 333.18,-332.98"/>
<polygon fill="black" stroke="black" points="336.3,-334.56 338,-324.1 330.15,-331.22 336.3,-334.56"/>
</g>
<!-- WILL_REDIRECT_REQUEST&#45;&gt;CANCELING -->
<g id="edge17" class="edge">
<title>WILL_REDIRECT_REQUEST&#45;&gt;CANCELING</title>
<path fill="none" stroke="black" d="M410.81,-367.45C437.63,-359.75 463.69,-346.52 480.28,-324 509.76,-284 486.61,-223.18 469.13,-188.88"/>
<polygon fill="black" stroke="black" points="472.17,-187.15 464.39,-179.95 465.98,-190.43 472.17,-187.15"/>
</g>
<!-- WILL_PROCESS_RESPONSE&#45;&gt;WILL_FAIL_REQUEST -->
<g id="edge18" class="edge">
<title>WILL_PROCESS_RESPONSE&#45;&gt;WILL_FAIL_REQUEST</title>
<path fill="none" stroke="black" d="M323.57,-288.23C310.59,-279.06 294.33,-267.56 280.24,-257.6"/>
<polygon fill="black" stroke="black" points="281.99,-254.55 271.8,-251.63 277.95,-260.26 281.99,-254.55"/>
</g>
<!-- WILL_PROCESS_RESPONSE&#45;&gt;READY_TO_COMMIT -->
<g id="edge19" class="edge">
<title>WILL_PROCESS_RESPONSE&#45;&gt;READY_TO_COMMIT</title>
<path fill="none" stroke="black" d="M359.59,-287.78C365.93,-277.84 373.01,-264.8 376.28,-252 388.01,-206.13 379.04,-150.7 371.58,-118.3"/>
<polygon fill="black" stroke="black" points="374.9,-117.13 369.14,-108.24 368.09,-118.78 374.9,-117.13"/>
</g>
<!-- WILL_PROCESS_RESPONSE&#45;&gt;CANCELING -->
<g id="edge20" class="edge">
<title>WILL_PROCESS_RESPONSE&#45;&gt;CANCELING</title>
<path fill="none" stroke="black" d="M371.09,-288.27C383.55,-278.68 398.44,-265.81 409.28,-252 424.24,-232.96 436.29,-208.16 444.14,-189.57"/>
<polygon fill="black" stroke="black" points="447.42,-190.81 447.96,-180.23 440.94,-188.16 447.42,-190.81"/>
</g>
<!-- READY_TO_COMMIT&#45;&gt;NOT_STARTED -->
<g id="edge21" class="edge">
<title>READY_TO_COMMIT&#45;&gt;NOT_STARTED</title>
<path fill="none" stroke="black" d="M436.16,-102.53C466.28,-110.25 500.07,-123.01 525.28,-144 587.95,-196.18 613.28,-223.45 613.28,-305 613.28,-523 613.28,-523 613.28,-523 613.28,-598.7 521.25,-635.61 454.65,-652.41"/>
<polygon fill="black" stroke="black" points="453.5,-649.09 444.61,-654.84 455.15,-655.89 453.5,-649.09"/>
</g>
<!-- READY_TO_COMMIT&#45;&gt;DID_COMMIT -->
<g id="edge22" class="edge">
<title>READY_TO_COMMIT&#45;&gt;DID_COMMIT</title>
<path fill="none" stroke="black" d="M332.74,-72.76C313.19,-62.7 287.94,-49.7 267.16,-39.01"/>
<polygon fill="black" stroke="black" points="268.75,-35.89 258.26,-34.43 265.55,-42.12 268.75,-35.89"/>
</g>
<!-- READY_TO_COMMIT&#45;&gt;DID_COMMIT_ERROR_PAGE -->
<g id="edge23" class="edge">
<title>READY_TO_COMMIT&#45;&gt;DID_COMMIT_ERROR_PAGE</title>
<path fill="none" stroke="black" d="M389.84,-72.59C404.39,-63.25 422.81,-51.41 438.64,-41.25"/>
<polygon fill="black" stroke="black" points="440.61,-44.14 447.13,-35.8 436.83,-38.25 440.61,-44.14"/>
</g>
<!-- CANCELING&#45;&gt;WILL_FAIL_REQUEST -->
<g id="edge24" class="edge">
<title>CANCELING&#45;&gt;WILL_FAIL_REQUEST</title>
<path fill="none" stroke="black" d="M418.88,-176.91C388.2,-187.83 343.33,-203.13 307.26,-214.99"/>
<polygon fill="black" stroke="black" points="305.76,-211.8 297.35,-218.24 307.94,-218.45 305.76,-211.8"/>
</g>
<!-- CANCELING&#45;&gt;READY_TO_COMMIT -->
<g id="edge25" class="edge">
<title>CANCELING&#45;&gt;READY_TO_COMMIT</title>
<path fill="none" stroke="black" d="M433.41,-144.76C421.65,-135.62 406.78,-124.05 393.84,-113.99"/>
<polygon fill="black" stroke="black" points="395.71,-111.01 385.67,-107.63 391.42,-116.54 395.71,-111.01"/>
</g>
</g>
</svg>
