<?xml version="1.0" encoding="UTF-8"?>
<svg width="528px" height="528px" viewBox="0 0 528 528" version="1.1" xmlns="http://www.w3.org/2000/svg" xmlns:xlink="http://www.w3.org/1999/xlink">
    <!-- Generator: Sketch 60 (88103) - https://sketch.com -->
    <title>complete_2x</title>
    <desc>Created with Sketch.</desc>
    <defs>
        <polygon id="path-1" points="0.232951488 0.057104992 78.3776717 0.057104992 78.3776717 149.267656 0.232951488 149.267656"></polygon>
    </defs>
    <g id="complete_2x" stroke="none" stroke-width="1" fill="none" fill-rule="evenodd">
        <g id="Group-20" transform="translate(101.000000, 101.000000)">
            <path d="M6.20928,163.88696 L6.20928,161.052424 C6.20928,75.6717192 75.670943,6.21005616 161.051648,6.21005616 L163.886184,6.21005616 C193.703147,6.21005616 222.231684,14.5832702 246.792491,30.2135803 L249.901788,24.8270299 C224.406484,8.6580648 194.811503,0.00077616 163.886184,0.00077616 L161.051648,0.00077616 C72.2480774,0.00077616 0,72.2488536 0,161.052424 L0,163.88696 C0,167.284989 0.11487168,170.669046 0.33219648,174.037581 L6.54768576,174.037581 C6.32259936,170.670599 6.20928,167.284989 6.20928,163.88696" id="Fill-11" fill="#4285F4"></path>
            <g id="Group-15" transform="translate(246.560160, 24.769304)">
                <mask id="mask-2" fill="white">
                    <use xlink:href="#path-1"></use>
                </mask>
                <g id="Clip-14"></g>
                <path d="M26.8164315,26.7927124 C56.0621403,56.0384212 72.1690126,94.9224848 72.1690126,136.284051 L72.1690126,139.117035 C72.1690126,142.513511 72.0339608,145.897569 71.8150836,149.267656 L78.0336776,149.267656 C78.2432408,145.896017 78.3782926,142.513511 78.3782926,139.117035 L78.3782926,136.284051 C78.3782926,93.2646071 61.6256552,52.8204618 31.2063924,22.4027514 C22.6546616,13.8510205 13.3127998,6.38125667 3.34224845,0.057104992 L0.232951488,5.44520771 C9.73935917,11.4945988 18.6543329,18.6306138 26.8164315,26.7927124" id="Fill-13" fill="#EA4335" mask="url(#mask-2)"></path>
            </g>
            <path d="M318.375709,174.037736 C317.55298,186.755894 315.207424,199.266041 311.320415,211.346195 C290.660588,275.576539 231.413191,318.729483 163.887271,318.729483 L161.051182,318.729483 C136.285469,318.729483 111.962167,312.808935 90.1334428,301.554615 L87.0288028,306.933403 C109.801337,318.727931 135.194188,324.938763 161.051182,324.938763 L163.887271,324.938763 C234.120437,324.938763 295.744436,280.05343 317.233202,213.247787 C321.317356,200.554466 323.763812,187.403211 324.594303,174.037736 L318.375709,174.037736 Z" id="Fill-16" fill="#FBBC05"></path>
            <path d="M81.9090962,297.004454 C38.1383292,270.923926 9.90938995,224.469198 6.54706483,174.037425 L0.331575552,174.037425 C3.70321459,226.648655 33.0917368,275.144684 78.7314972,302.339778 C81.4527141,303.958848 84.2236053,305.481674 87.0286476,306.933093 L90.1332876,301.554304 C87.3530824,300.11996 84.605476,298.611105 81.9090962,297.004454" id="Fill-18" fill="#34A853"></path>
        </g>
        <g id="Group" transform="translate(201.000000, 215.000000)">
            <g id="touch/device/check"></g>
            <path d="M9.5,49.5 L47,87 M117,9 L44,84" id="Combined-Shape" stroke="#1E8E3E" stroke-width="8"></path>
        </g>
    </g>
</svg>